<?xml version="1.0" encoding="UTF-8"?><svg id="Layer_2" xmlns="http://www.w3.org/2000/svg" viewBox="0 0 627.7 117.92"><defs><style>.cls-1{fill:none;stroke:#0f336d;stroke-miterlimit:10;stroke-width:5px;}.cls-2{fill:#0f336d;}.cls-2,.cls-3{stroke-width:0px;}.cls-3{fill:#f78808;}</style></defs><g id="Layer_1-2"><path class="cls-2" d="m208.23,0v50.67h-9.63l-25.26-30.77v30.77h-11.58V0h9.7l25.19,30.77V0h11.58Z"/><path class="cls-2" d="m259.48,41.26v9.41h-39.24V0h38.29v9.41h-26.64v11h23.53v9.12h-23.53v11.73h27.58Z"/><path class="cls-2" d="m344.69,0l-16.58,50.67h-12.6l-11.15-34.31-11.51,34.31h-12.52L263.68,0h12.16l11.44,35.62L299.22,0h10.86l11.58,35.91L333.47,0h11.22Z"/><path class="cls-3" d="m161.75,66.38h23.02c16.58,0,27.94,9.99,27.94,25.34s-11.37,25.34-27.94,25.34h-23.02v-50.67Zm22.44,41.05c10.06,0,16.65-6.01,16.65-15.71s-6.59-15.71-16.65-15.71h-10.71v31.42h10.71Z"/><path class="cls-3" d="m221.55,66.38h11.73v50.67h-11.73v-50.67Z"/><path class="cls-3" d="m277.58,117.05l-9.77-14.12h-10.79v14.12h-11.73v-50.67h21.93c13.54,0,22.01,7.02,22.01,18.39,0,7.6-3.84,13.18-10.42,16l11.37,16.29h-12.6Zm-11-41.12h-9.56v17.66h9.56c7.17,0,10.79-3.33,10.79-8.83s-3.62-8.83-10.79-8.83Z"/><path class="cls-3" d="m337.73,107.64v9.41h-39.24v-50.67h38.29v9.41h-26.64v11h23.53v9.12h-23.53v11.73h27.58Z"/><path class="cls-3" d="m343.74,91.72c0-15.27,11.73-26.21,27.51-26.21,8.76,0,16.07,3.19,20.85,8.98l-7.53,6.95c-3.4-3.91-7.67-5.94-12.74-5.94-9.48,0-16.22,6.66-16.22,16.22s6.73,16.22,16.22,16.22c5.07,0,9.34-2.03,12.74-6.01l7.53,6.95c-4.78,5.86-12.09,9.05-20.92,9.05-15.71,0-27.44-10.93-27.44-26.21Z"/><path class="cls-3" d="m411.98,75.93h-16.22v-9.56h44.16v9.56h-16.22v41.12h-11.73v-41.12Z"/><path class="cls-3" d="m446.22,66.38h11.73v50.67h-11.73v-50.67Z"/><path class="cls-3" d="m466.78,91.72c0-15.06,11.73-26.21,27.73-26.21s27.73,11.08,27.73,26.21-11.8,26.21-27.73,26.21-27.73-11.15-27.73-26.21Zm43.58,0c0-9.63-6.8-16.22-15.85-16.22s-15.85,6.59-15.85,16.22,6.8,16.22,15.85,16.22,15.85-6.59,15.85-16.22Z"/><path class="cls-3" d="m577.54,66.38v50.67h-9.63l-25.26-30.77v30.77h-11.58v-50.67h9.7l25.19,30.77v-30.77h11.58Z"/><path class="cls-3" d="m585.57,112.06l3.98-8.83c4.27,3.11,10.64,5.28,16.72,5.28,6.95,0,9.77-2.32,9.77-5.43,0-9.48-29.46-2.97-29.46-21.79,0-8.61,6.95-15.78,21.36-15.78,6.37,0,12.89,1.52,17.59,4.49l-3.62,8.9c-4.71-2.68-9.56-3.98-14.04-3.98-6.95,0-9.63,2.61-9.63,5.79,0,9.34,29.46,2.9,29.46,21.5,0,8.47-7.02,15.71-21.5,15.71-8.04,0-16.14-2.39-20.63-5.86Z"/><line class="cls-1" x1="135.02" y1=".02" x2="135.02" y2="117.07"/><path class="cls-3" d="m79.71,39.18v17.53c6.31,4.21,9.98,11.26,9.98,20.38,0,15.28-10.31,24.75-26.06,24.75h-16.76v-25.41l-18.35-22.34v62.92h36.02c25.94,0,43.73-15.74,43.73-39.92,0-19.11-11.1-32.94-28.56-37.91Zm-6.48,14.51v-15.89l-18.25-.63v11.33l-9.28-11.33-17.18,6.73,18.35,22.35,26.36-12.55Z"/><path class="cls-2" d="m54.99.02v48.49l-9.28-11.33L15.29.02H0v79.86h18.25V31.39l10.27,12.51,18.35,22.35,11.19,13.63h15.17V.02h-18.25Z"/></g></svg>