<?xml version="1.0" encoding="utf-8"?>
<!-- Generator: Adobe Illustrator 18.1.1, SVG Export Plug-In . SVG Version: 6.00 Build 0)  -->
<svg version="1.1" id="Layer_1" xmlns="http://www.w3.org/2000/svg" xmlns:xlink="http://www.w3.org/1999/xlink" x="0px" y="0px"
	 viewBox="0 599.5 595.3 242.4" enable-background="new 0 599.5 595.3 242.4" xml:space="preserve">
<path fill="#ED0C57" d="M49.9,761.8c0-3.6,0.7-6.8,2.1-10.1c1.3-3.1,3.3-6,5.7-8.3c2.4-2.4,5.1-4.3,8.2-5.7c3.1-1.5,6.4-2.1,9.8-2.1
	c2.2,0,4.3,0.3,6.3,0.9c1.8,0.6,3.4,1.2,4.8,2.1c1.3,0.7,2.4,1.5,3.1,2.4c0.7,0.7,1.3,1.5,1.5,1.9l0.4-5.8h10.7v49H91.2v-3.3
	c0-0.4,0-0.7,0-1s0-0.6,0-0.7c-0.3,0.4-0.9,0.9-1.6,1.6c-0.7,0.7-1.8,1.5-3.1,2.1c-1.3,0.7-2.8,1.3-4.6,1.8
	c-1.8,0.4-3.9,0.7-6.3,0.7c-3.7,0-7.3-0.7-10.4-2.1c-3.1-1.3-5.8-3.3-8.2-5.5c-2.2-2.2-4-4.9-5.4-8
	C50.6,768.3,49.9,765.1,49.9,761.8z M61,761c0,2.1,0.3,4.2,1,6c0.7,1.8,1.8,3.4,3.1,4.8c1.3,1.3,3,2.4,4.8,3.1
	c1.8,0.7,3.9,1.2,6.1,1.2c2.2,0,4.3-0.4,6.1-1.2c1.8-0.7,3.4-1.8,4.8-3.3c1.3-1.3,2.4-3,3.1-4.9c0.7-1.8,1-3.9,1-5.8
	c0-2.1-0.3-4-1-5.8s-1.8-3.4-3.1-4.6c-1.3-1.3-3-2.4-4.8-3.1c-1.8-0.7-3.9-1.2-6.1-1.2c-2.2,0-4.3,0.3-6.1,1
	c-1.8,0.7-3.4,1.8-4.8,3.1c-1.3,1.3-2.4,3-3.1,4.8C61.5,757,61,758.9,61,761z M121.4,715.3h11v21.4h12.8v10h-12.8v39h-11v-39h-8.3
	v-10h8.3C121.4,736.7,121.4,715.3,121.4,715.3z M158.8,715.3h11v21.4h12.8v10h-12.9v39h-11v-39h-8.3v-10h8.3L158.8,715.3
	L158.8,715.3z M192.6,717.7c0-1.9,0.7-3.6,2.2-4.9c1.5-1.3,3-1.9,4.8-1.9s3.3,0.6,4.6,1.9c1.5,1.3,2.1,3,2.1,4.9
	c0,2.1-0.7,3.7-2.1,5.1c-1.5,1.3-3,1.9-4.6,1.9c-1.6,0-3.3-0.6-4.8-1.9C193.3,721.4,192.6,719.8,192.6,717.7z M204.9,785.7h-11v-49
	h11V785.7z M252.1,772.9c1.2,1.5,2.2,2.8,3.3,4.2c1,1.3,2.2,2.7,3.3,4c-2.2,1.8-4.8,3.1-7.4,4.2c-2.8,1-5.7,1.5-8.9,1.5
	c-3.6,0-7-0.7-10.1-2.1c-3.1-1.3-6-3.1-8.3-5.5s-4.2-5.1-5.7-8.2c-1.3-3.1-2.1-6.5-2.1-10c0-3.6,0.7-6.8,2.1-10
	c1.3-3.1,3.3-5.8,5.7-8.2c2.4-2.4,5.1-4.2,8.3-5.5c3.1-1.3,6.5-2.1,10.1-2.1c3.3,0,6.3,0.4,9.1,1.5c2.8,1,5.4,2.4,7.6,4.2l-7,8.2
	c-2.7-2.1-6-3.1-9.7-3.1c-2.2,0-4.3,0.4-6.1,1.2c-1.8,0.7-3.4,1.8-4.8,3.1c-1.3,1.3-2.4,2.8-3.1,4.6c-0.7,1.8-1,3.7-1,6
	c0,2.1,0.3,4,1,5.8c0.7,1.8,1.8,3.4,3.1,4.8c1.3,1.3,3,2.5,4.8,3.3c1.8,0.7,3.9,1.2,6.1,1.2C246.3,776.1,249.6,775,252.1,772.9z
	 M273.1,778.6c0-1.9,0.7-3.7,2.2-5.1c1.5-1.3,3.1-2.1,4.9-2.1c1.6,0,3.1,0.7,4.6,2.1c1.5,1.3,2.2,3.1,2.2,5.1c0,2.2-0.7,4-2.2,5.2
	c-1.5,1.3-3.1,1.9-4.6,1.9c-1.8,0-3.4-0.6-4.9-1.9C273.8,782.5,273.1,780.8,273.1,778.6z M318.9,743.9l-3.3-7.1h9.5
	c2.2,5.1,4.2,9.2,5.8,12.8c1.5,3.6,2.8,6.5,3.9,8.9c1.1,2.4,1.8,4.3,2.4,5.8s1,2.7,1.3,3.6c0.3-2.1,0.7-4,1.2-5.7
	c0.5-1.7,1.2-3.6,2.1-5.8c0.9-2.1,2.1-4.8,3.6-7.9c1.5-3.1,3.1-7,5.2-11.9h11l-23.2,51.8c-1.5-3-2.8-5.8-3.9-8.6
	c-1.2-2.8-2.2-5.7-3.4-8.3c-1.2-2.8-2.4-5.5-3.6-8.3c-1.2-2.8-2.5-5.7-4-8.6c-2.7,5.8-5.1,11.5-7.4,17c-2.4,5.5-4.8,11.2-7.3,17
	l-22-51.8h11c2.1,5.1,3.7,9.1,5.1,12.1c1.3,3.1,2.4,5.7,3.1,7.9c0.7,2.1,1.3,4,1.8,5.7c0.4,1.6,0.7,3.6,1,5.7
	c0.3-0.7,0.4-1.5,0.9-2.4c0.3-0.9,0.9-2.2,1.5-4c0.7-1.8,1.6-4,2.8-6.8C315.3,752,317,748.4,318.9,743.9z M365.2,761.8
	c0-3.6,0.7-6.8,2.1-10.1c1.3-3.1,3.3-6,5.7-8.3c2.4-2.3,5.1-4.3,8.2-5.7c3.1-1.5,6.4-2.1,9.8-2.1c2.2,0,4.3,0.3,6.3,0.9
	c1.8,0.6,3.4,1.2,4.8,2.1c1.3,0.7,2.4,1.5,3.1,2.4c0.7,0.7,1.3,1.5,1.5,1.9l0.4-5.8h10.7v49h-11.2v-3.3c0-0.4,0-0.7,0-1s0-0.6,0-0.7
	c-0.3,0.4-0.9,0.9-1.6,1.6c-0.7,0.7-1.8,1.5-3.1,2.1c-1.3,0.7-2.8,1.3-4.6,1.8s-3.9,0.7-6.3,0.7c-3.7,0-7.1-0.7-10.4-2.1
	c-3.1-1.3-5.8-3.3-8.2-5.5c-2.2-2.2-4-4.9-5.4-8C365.9,768.3,365.2,765.1,365.2,761.8z M376.4,761c0,2.1,0.3,4.2,1,6
	s1.8,3.4,3.1,4.8c1.3,1.3,3,2.4,4.8,3.1c1.8,0.7,3.9,1.2,6.1,1.2c2.2,0,4.3-0.4,6.1-1.2c1.8-0.7,3.4-1.8,4.8-3.3
	c1.3-1.3,2.4-3,3.1-4.9c0.7-1.8,1-3.9,1-5.8c0-2.1-0.3-4-1-5.8s-1.8-3.4-3.1-4.6c-1.3-1.3-3-2.4-4.8-3.1c-1.8-0.7-3.9-1.2-6.1-1.2
	c-2.2,0-4.3,0.3-6.1,1c-1.8,0.7-3.4,1.8-4.8,3.1c-1.3,1.3-2.4,3-3.1,4.8C376.8,757,376.4,758.9,376.4,761z M443.2,785.7h-11v-70.4
	h11V785.7z M499.7,780.1c-2.4,2.1-5.2,3.9-8.6,5.1c-3.4,1.2-6.8,1.8-10.4,1.8s-7-0.7-10.1-2.1c-3.1-1.3-6-3.1-8.3-5.5
	c-2.4-2.4-4.2-5.1-5.7-8.2c-1.3-3.1-2.1-6.4-2.1-10c0-3.6,0.7-6.8,2.1-10c1.3-3.1,3.3-5.8,5.7-8.2c2.4-2.4,5.1-4.2,8.2-5.5
	c3.1-1.3,6.4-2.1,9.8-2.1c5.5,0,10.4,1.6,14.6,5.1c4.2,3.3,7.1,7.7,8.9,13.2c-2.2,0.9-4.9,1.9-8,3.1c-3,1.2-6.3,2.4-9.5,3.7
	c-3.3,1.3-6.5,2.7-10,4c-3.3,1.3-6.4,2.5-9.1,3.6c1.3,2.4,3.1,4.3,5.4,5.8c2.3,1.5,4.9,2.2,7.9,2.2c1.9,0,4-0.3,6.1-1
	c2.1-0.7,3.7-1.6,5.1-3L499.7,780.1z M490.1,751.2c-0.9-1.6-2.2-3-4.2-3.7c-1.8-0.7-3.7-1.2-5.4-1.2c-2.1,0-4,0.4-5.8,1.2
	c-1.8,0.7-3.4,1.9-4.8,3.3c-1.3,1.3-2.4,2.8-3.1,4.6c-0.7,1.8-1.2,3.6-1.2,5.4v0.4c1.9-0.7,4-1.6,6.1-2.5c2.2-0.9,4.3-1.8,6.5-2.7
	c2.2-0.9,4.3-1.8,6.3-2.5C486.6,752.6,488.4,751.8,490.1,751.2z M543.3,741.1c-0.4,0.7-1,1.5-1.6,2.4c-0.6,0.9-1.3,1.6-1.9,2.5
	c-0.6,0.7-1.3,1.8-2.2,2.8c-0.7-0.6-1.5-0.9-2.2-1.3c-0.7-0.3-1.6-0.6-2.5-0.9c-0.9-0.3-1.9-0.4-3-0.4c-1,0-2.2,0.3-3.4,0.7
	c-1.2,0.4-1.8,1.5-1.8,3.1c0,1.3,0.4,2.4,1.5,3.3c1,0.9,2.2,1.6,3.9,2.4c1.5,0.7,3.1,1.5,4.9,2.2c1.8,0.7,3.4,1.8,4.9,2.8
	c1.5,1.2,2.8,2.5,3.9,4.3c1.1,1.8,1.5,3.9,1.5,6.4c0,2.2-0.4,4.3-1.2,6.1c-0.8,1.8-1.9,3.4-3.4,4.8c-1.5,1.3-3.3,2.4-5.4,3.1
	c-2.1,0.7-4.5,1.2-7,1.2c-3.1,0-6.3-0.6-9.2-1.6c-3-1-5.2-2.7-7-4.6c0.6-0.6,1.2-1.3,1.9-2.2s1.5-1.8,2.2-2.7c0.7-0.9,1.5-1.8,2.5-3
	c0-0.1,0.3,0,0.7,0.4c0.4,0.3,1.2,0.7,2.1,1.2c0.9,0.4,1.8,0.9,3,1.3c1.2,0.4,2.4,0.6,3.6,0.6c1.9,0,3.4-0.4,4.5-1.3
	c1-0.9,1.5-1.9,1.5-3.1s-0.4-2.2-1.5-3c-1-0.7-2.2-1.5-3.9-2.1c-1.5-0.6-3.1-1.3-4.9-2.1c-1.8-0.7-3.4-1.8-4.9-2.8
	c-1.5-1.2-2.8-2.7-3.9-4.5c-1-1.8-1.5-4-1.5-6.8c0-2.8,0.4-5.1,1.5-6.8c1.1-1.7,2.2-3.3,3.9-4.5c1.6-1.2,3.3-1.9,5.1-2.5
	c1.8-0.4,3.7-0.7,5.4-0.7c2.4,0,4.9,0.4,7.4,1.5C539.5,738,541.7,739.3,543.3,741.1z M236.2,706l-72-56.7L92.3,706l9.5,12.1
	l62.5-49.3l62.5,49.3L236.2,706z"/>
</svg>
