<?xml version="1.0" encoding="utf-8"?>
<!-- Generator: Adobe Illustrator 18.1.1, SVG Export Plug-In . SVG Version: 6.00 Build 0)  -->
<svg version="1.1" id="Layer_1" xmlns="http://www.w3.org/2000/svg" xmlns:xlink="http://www.w3.org/1999/xlink" x="0px" y="0px"
	 viewBox="0 0 400 191.1" enable-background="new 0 0 400 191.1" xml:space="preserve">
<rect x="0" y="0" fill="#E8368C" width="400" height="191.1"/>
<path fill="#FFFFFF" d="M33.5,137.3c0-2.4,0.5-4.6,1.4-6.8c0.9-2.1,2.2-4,3.8-5.6c1.6-1.6,3.4-2.9,5.5-3.8c2.1-1,4.3-1.4,6.6-1.4
	c1.5,0,2.9,0.2,4.2,0.6c1.2,0.4,2.3,0.8,3.2,1.4c0.9,0.5,1.6,1,2.1,1.6c0.5,0.5,0.9,1,1,1.3l0.3-3.9h7.2v32.9h-7.5v-2.2
	c0-0.3,0-0.5,0-0.7c0-0.2,0-0.4,0-0.5c-0.2,0.3-0.6,0.6-1.1,1.1c-0.5,0.5-1.2,1-2.1,1.4c-0.9,0.5-1.9,0.9-3.1,1.2
	c-1.2,0.3-2.6,0.5-4.2,0.5c-2.5,0-4.9-0.5-7-1.4c-2.1-0.9-3.9-2.2-5.5-3.7c-1.5-1.5-2.7-3.3-3.6-5.4C34,141.7,33.5,139.5,33.5,137.3
	z M41,136.8c0,1.4,0.2,2.8,0.7,4c0.5,1.2,1.2,2.3,2.1,3.2c0.9,0.9,2,1.6,3.2,2.1c1.2,0.5,2.6,0.8,4.1,0.8c1.5,0,2.9-0.3,4.1-0.8
	c1.2-0.5,2.3-1.2,3.2-2.2c0.9-0.9,1.6-2,2.1-3.3c0.5-1.2,0.7-2.6,0.7-3.9c0-1.4-0.2-2.7-0.7-3.9c-0.5-1.2-1.2-2.3-2.1-3.1
	c-0.9-0.9-2-1.6-3.2-2.1c-1.2-0.5-2.6-0.8-4.1-0.8c-1.5,0-2.9,0.2-4.1,0.7c-1.2,0.5-2.3,1.2-3.2,2.1c-0.9,0.9-1.6,2-2.1,3.2
	C41.3,134.1,41,135.4,41,136.8z M81.6,106.1h7.4v14.4h8.6v6.7h-8.6v26.2h-7.4v-26.2H76v-6.7h5.6V106.1z M106.7,106.1h7.4v14.4h8.6
	v6.7H114v26.2h-7.4v-26.2h-5.6v-6.7h5.6V106.1z M129.4,107.7c0-1.3,0.5-2.4,1.5-3.3c1-0.9,2-1.3,3.2-1.3s2.2,0.4,3.1,1.3
	c1,0.9,1.4,2,1.4,3.3c0,1.4-0.5,2.5-1.4,3.4c-1,0.9-2,1.3-3.1,1.3s-2.2-0.4-3.2-1.3C129.9,110.2,129.4,109.1,129.4,107.7z
	 M137.7,153.4h-7.4v-32.9h7.4V153.4z M169.4,144.8c0.8,1,1.5,1.9,2.2,2.8c0.7,0.9,1.5,1.8,2.2,2.7c-1.5,1.2-3.2,2.1-5,2.8
	c-1.9,0.7-3.8,1-6,1c-2.4,0-4.7-0.5-6.8-1.4c-2.1-0.9-4-2.1-5.6-3.7c-1.6-1.6-2.8-3.4-3.8-5.5c-0.9-2.1-1.4-4.4-1.4-6.7
	c0-2.4,0.5-4.6,1.4-6.7c0.9-2.1,2.2-3.9,3.8-5.5c1.6-1.6,3.4-2.8,5.6-3.7c2.1-0.9,4.4-1.4,6.8-1.4c2.2,0,4.2,0.3,6.1,1
	c1.9,0.7,3.6,1.6,5.1,2.8l-4.7,5.5c-1.8-1.4-4-2.1-6.5-2.1c-1.5,0-2.9,0.3-4.1,0.8c-1.2,0.5-2.3,1.2-3.2,2.1
	c-0.9,0.9-1.6,1.9-2.1,3.1c-0.5,1.2-0.7,2.5-0.7,4c0,1.4,0.2,2.7,0.7,3.9c0.5,1.2,1.2,2.3,2.1,3.2c0.9,0.9,2,1.7,3.2,2.2
	c1.2,0.5,2.6,0.8,4.1,0.8C165.5,146.9,167.7,146.2,169.4,144.8z M183.5,148.6c0-1.3,0.5-2.5,1.5-3.4c1-0.9,2.1-1.4,3.3-1.4
	c1.1,0,2.1,0.5,3.1,1.4c1,0.9,1.5,2.1,1.5,3.4c0,1.5-0.5,2.7-1.5,3.5c-1,0.9-2.1,1.3-3.1,1.3c-1.2,0-2.3-0.4-3.3-1.3
	C184,151.2,183.5,150.1,183.5,148.6z M214.3,125.3l-2.2-4.8h6.4c1.5,3.4,2.8,6.2,3.9,8.6c1,2.4,1.9,4.4,2.6,6
	c0.7,1.6,1.2,2.9,1.6,3.9c0.4,1,0.7,1.8,0.9,2.4c0.2-1.4,0.5-2.7,0.8-3.8c0.3-1.1,0.8-2.4,1.4-3.9c0.6-1.4,1.4-3.2,2.4-5.3
	c1-2.1,2.1-4.7,3.5-8h7.4l-15.6,34.8c-1-2-1.9-3.9-2.6-5.8c-0.8-1.9-1.5-3.8-2.3-5.6c-0.8-1.9-1.6-3.7-2.4-5.6
	c-0.8-1.9-1.7-3.8-2.7-5.8c-1.8,3.9-3.4,7.7-5,11.4c-1.6,3.7-3.2,7.5-4.9,11.4l-14.8-34.8h7.4c1.4,3.4,2.5,6.1,3.4,8.1
	c0.9,2.1,1.6,3.8,2.1,5.3c0.5,1.4,0.9,2.7,1.2,3.8c0.3,1.1,0.5,2.4,0.7,3.8c0.2-0.5,0.3-1,0.6-1.6c0.2-0.6,0.6-1.5,1-2.7
	c0.5-1.2,1.1-2.7,1.9-4.6C211.9,130.7,213,128.3,214.3,125.3z M245.4,137.3c0-2.4,0.5-4.6,1.4-6.8c0.9-2.1,2.2-4,3.8-5.6
	c1.6-1.6,3.4-2.9,5.5-3.8c2.1-1,4.3-1.4,6.6-1.4c1.5,0,2.9,0.2,4.2,0.6c1.2,0.4,2.3,0.8,3.2,1.4c0.9,0.5,1.6,1,2.1,1.6
	c0.5,0.5,0.9,1,1,1.3l0.3-3.9h7.2v32.9h-7.5v-2.2c0-0.3,0-0.5,0-0.7c0-0.2,0-0.4,0-0.5c-0.2,0.3-0.6,0.6-1.1,1.1
	c-0.5,0.5-1.2,1-2.1,1.4c-0.9,0.5-1.9,0.9-3.1,1.2s-2.6,0.5-4.2,0.5c-2.5,0-4.8-0.5-7-1.4c-2.1-0.9-3.9-2.2-5.5-3.7
	c-1.5-1.5-2.7-3.3-3.6-5.4C245.9,141.7,245.4,139.5,245.4,137.3z M252.9,136.8c0,1.4,0.2,2.8,0.7,4c0.5,1.2,1.2,2.3,2.1,3.2
	c0.9,0.9,2,1.6,3.2,2.1c1.2,0.5,2.6,0.8,4.1,0.8c1.5,0,2.9-0.3,4.1-0.8c1.2-0.5,2.3-1.2,3.2-2.2c0.9-0.9,1.6-2,2.1-3.3
	c0.5-1.2,0.7-2.6,0.7-3.9c0-1.4-0.2-2.7-0.7-3.9c-0.5-1.2-1.2-2.3-2.1-3.1c-0.9-0.9-2-1.6-3.2-2.1c-1.2-0.5-2.6-0.8-4.1-0.8
	c-1.5,0-2.9,0.2-4.1,0.7c-1.2,0.5-2.3,1.2-3.2,2.1c-0.9,0.9-1.6,2-2.1,3.2C253.2,134.1,252.9,135.4,252.9,136.8z M297.8,153.4h-7.4
	v-47.3h7.4V153.4z M335.8,149.6c-1.6,1.4-3.5,2.6-5.8,3.4c-2.3,0.8-4.6,1.2-7,1.2c-2.4,0-4.7-0.5-6.8-1.4c-2.1-0.9-4-2.1-5.6-3.7
	c-1.6-1.6-2.8-3.4-3.8-5.5c-0.9-2.1-1.4-4.3-1.4-6.7c0-2.4,0.5-4.6,1.4-6.7c0.9-2.1,2.2-3.9,3.8-5.5c1.6-1.6,3.4-2.8,5.5-3.7
	c2.1-0.9,4.3-1.4,6.6-1.4c3.7,0,7,1.1,9.8,3.4c2.8,2.2,4.8,5.2,6,8.9c-1.5,0.6-3.3,1.3-5.4,2.1c-2,0.8-4.2,1.6-6.4,2.5
	c-2.2,0.9-4.4,1.8-6.7,2.7c-2.2,0.9-4.3,1.7-6.1,2.4c0.9,1.6,2.1,2.9,3.6,3.9c1.5,1,3.3,1.5,5.3,1.5c1.3,0,2.7-0.2,4.1-0.7
	c1.4-0.5,2.5-1.1,3.4-2L335.8,149.6z M329.3,130.2c-0.6-1.1-1.5-2-2.8-2.5c-1.2-0.5-2.5-0.8-3.6-0.8c-1.4,0-2.7,0.3-3.9,0.8
	c-1.2,0.5-2.3,1.3-3.2,2.2c-0.9,0.9-1.6,1.9-2.1,3.1s-0.8,2.4-0.8,3.6v0.3c1.3-0.5,2.7-1.1,4.1-1.7c1.5-0.6,2.9-1.2,4.4-1.8
	c1.5-0.6,2.9-1.2,4.2-1.7C327,131.1,328.2,130.6,329.3,130.2z M365.1,123.4c-0.3,0.5-0.7,1-1.1,1.6c-0.4,0.6-0.9,1.1-1.3,1.7
	c-0.4,0.5-0.9,1.2-1.5,1.9c-0.5-0.4-1-0.6-1.5-0.9c-0.5-0.2-1.1-0.4-1.7-0.6c-0.6-0.2-1.3-0.3-2-0.3c-0.7,0-1.5,0.2-2.3,0.5
	c-0.8,0.3-1.2,1-1.2,2.1c0,0.9,0.3,1.6,1,2.2c0.7,0.6,1.5,1.1,2.6,1.6c1,0.5,2.1,1,3.3,1.5c1.2,0.5,2.3,1.2,3.3,1.9
	c1,0.8,1.9,1.7,2.6,2.9c0.7,1.2,1,2.6,1,4.3c0,1.5-0.3,2.9-0.8,4.1c-0.5,1.2-1.3,2.3-2.3,3.2c-1,0.9-2.2,1.6-3.6,2.1
	c-1.4,0.5-3,0.8-4.7,0.8c-2.1,0-4.2-0.4-6.2-1.1c-2-0.7-3.5-1.8-4.7-3.1c0.4-0.4,0.8-0.9,1.3-1.5c0.5-0.6,1-1.2,1.5-1.8
	c0.5-0.6,1-1.2,1.7-2c0-0.1,0.2,0,0.5,0.3c0.3,0.2,0.8,0.5,1.4,0.8c0.6,0.3,1.2,0.6,2,0.9c0.8,0.3,1.6,0.4,2.4,0.4
	c1.3,0,2.3-0.3,3-0.9c0.7-0.6,1-1.3,1-2.1c0-0.8-0.3-1.5-1-2c-0.7-0.5-1.5-1-2.6-1.4c-1-0.4-2.1-0.9-3.3-1.4
	c-1.2-0.5-2.3-1.2-3.3-1.9c-1-0.8-1.9-1.8-2.6-3c-0.7-1.2-1-2.7-1-4.6c0-1.9,0.3-3.4,1-4.6c0.7-1.2,1.5-2.2,2.6-3
	c1.1-0.8,2.2-1.3,3.4-1.7c1.2-0.3,2.5-0.5,3.6-0.5c1.6,0,3.3,0.3,5,1C362.5,121.3,364,122.2,365.1,123.4z M158.7,99.8l-48.4-38.1
	L62,99.8l6.4,8.1l42-33.1l42,33.1L158.7,99.8z"/>
</svg>
